<svg id="Groupe_6" data-name="Groupe 6" xmlns="http://www.w3.org/2000/svg" width="22.747" height="21" viewBox="0 0 22.747 21">
  <path id="Tracé_13" data-name="Tracé 13" d="M22.6,4.76a1.057,1.057,0,0,0-.872-.525H10.162A1.1,1.1,0,0,0,9.138,5.39a1.1,1.1,0,0,0,1.024,1.155H20.1L17.215,13.44H8.987L5.688.84A1.052,1.052,0,0,0,4.7,0H1.024A1.1,1.1,0,0,0,0,1.155,1.1,1.1,0,0,0,1.024,2.31H3.906l3.3,12.6a1.052,1.052,0,0,0,.986.84h9.631a1.03,1.03,0,0,0,.948-.665l3.868-9.2A1.291,1.291,0,0,0,22.6,4.76Z" fill="#fc6d07"/>
  <ellipse id="Ellipse_1" data-name="Ellipse 1" cx="1.972" cy="1.82" rx="1.972" ry="1.82" transform="translate(5.347 17.36)" fill="#fc6d07"/>
  <ellipse id="Ellipse_2" data-name="Ellipse 2" cx="1.972" cy="1.82" rx="1.972" ry="1.82" transform="translate(16.533 17.36)" fill="#fc6d07"/>
</svg>
