<?xml version="1.0" standalone="no"?>
<!DOCTYPE svg PUBLIC "-//W3C//DTD SVG 20010904//EN"
 "http://www.w3.org/TR/2001/REC-SVG-20010904/DTD/svg10.dtd">
<svg version="1.0" xmlns="http://www.w3.org/2000/svg"
 width="1280.000000pt" height="879.000000pt" viewBox="0 0 1280.000000 879.000000"
 preserveAspectRatio="xMidYMid meet">
<metadata>
Created by potrace 1.15, written by Peter Selinger 2001-2017
</metadata>
<g transform="translate(0.000000,879.000000) scale(0.100000,-0.100000)"
fill="#ffffff" stroke="none">
<path d="M5105 8720 c-691 -179 -2279 -580 -2555 -645 l-194 -47 -221 -156
c-352 -249 -549 -388 -709 -499 l-150 -103 -639 0 -640 0 7 -2202 c5 -1212 9
-2204 9 -2205 1 -1 227 -5 503 -9 l501 -7 114 -105 c401 -370 723 -664 754
-687 27 -21 40 -26 54 -19 23 11 282 253 1040 973 310 295 583 551 608 570 57
44 120 52 186 23 25 -11 207 -124 404 -250 412 -264 491 -312 511 -312 19 0
66 50 181 195 52 66 139 164 192 218 85 85 101 97 131 97 59 0 120 -42 653
-455 143 -111 460 -351 705 -535 490 -367 596 -451 605 -481 11 -33 -34 -145
-96 -239 l-59 -90 0 -531 c0 -471 2 -530 16 -525 16 6 702 403 768 444 l39 24
-6 786 c-4 560 -9 801 -18 837 -10 45 -25 63 -153 191 -77 77 -352 338 -611
580 -258 241 -535 502 -614 580 l-145 141 -7 59 c-17 139 -6 307 22 325 24 15
70 10 105 -12 57 -35 64 -53 64 -161 l0 -98 783 -734 784 -734 6 -873 c4 -480
10 -875 12 -878 13 -12 177 83 480 277 99 64 188 122 197 130 17 14 18 78 18
1080 l0 1064 -663 672 c-838 848 -971 987 -998 1043 -20 41 -21 56 -17 177 7
170 10 176 92 176 106 0 123 -30 125 -223 l1 -69 835 -840 835 -841 1 -851 c1
-910 9 -1429 22 -1443 12 -11 116 46 456 248 l291 173 0 1262 0 1261 -592 574
c-326 316 -875 850 -1220 1187 -345 336 -630 612 -633 612 -4 0 -125 -91 -269
-203 -321 -249 -322 -249 -371 -274 -22 -12 -87 -30 -144 -41 -58 -12 -111
-28 -119 -36 -10 -10 -16 -45 -20 -108 l-4 -93 -142 -105 c-77 -58 -325 -242
-551 -409 -534 -397 -567 -419 -641 -431 -32 -5 -274 -10 -539 -10 l-480 -1
-71 63 c-459 410 -712 642 -726 666 -29 49 -23 86 20 128 20 20 183 142 362
272 179 129 460 334 626 454 l301 219 6 377 c4 207 9 389 13 403 7 31 -2 26
619 359 603 323 665 359 665 381 0 33 -384 340 -424 339 -6 0 -132 -32 -281
-70z"/>
<path d="M6945 8773 c-53 -10 -123 -43 -265 -123 -250 -141 -450 -249 -1075
-580 -324 -172 -654 -348 -732 -393 l-143 -80 -2 -386 -3 -386 -255 -188
c-140 -104 -419 -308 -620 -454 -201 -146 -369 -269 -374 -274 -15 -14 294
-289 325 -289 19 0 178 103 479 311 249 172 388 259 414 259 33 0 81 -35 95
-69 8 -18 11 -45 7 -66 -9 -44 -27 -58 -446 -344 -179 -122 -336 -231 -350
-241 l-25 -20 48 -45 49 -45 465 0 465 0 67 47 c72 52 717 529 927 687 l131
98 6 247 c4 135 7 309 7 387 0 77 3 188 6 246 l7 106 50 23 49 24 47 -26 46
-26 6 -319 c3 -175 6 -321 7 -322 4 -8 128 11 167 25 22 7 65 33 95 57 30 23
149 116 264 205 240 188 360 271 391 271 63 0 242 -168 1674 -1570 480 -470
906 -886 947 -923 l74 -69 0 -1254 0 -1254 408 0 407 1 431 418 430 419 577 7
577 8 0 2149 0 2148 -517 0 -518 -1 -125 104 c-69 57 -163 132 -210 167 -47
36 -162 128 -257 205 l-171 141 -99 28 c-92 26 -1038 261 -1513 376 -118 29
-291 72 -385 96 -545 141 -1893 471 -1955 479 -25 4 -54 8 -65 9 -11 2 -29 1
-40 -1z"/>
<path d="M3628 3323 c-190 -174 -1383 -1310 -1511 -1441 l-99 -99 124 -105
c216 -183 650 -540 736 -605 72 -55 86 -62 101 -51 45 32 283 303 596 678 126
151 385 457 575 680 370 434 380 446 380 471 0 22 -637 441 -789 518 l-39 20
-74 -66z m70 -355 l70 -68 -91 -91 -92 -90 60 -57 c33 -31 116 -99 183 -150
68 -52 122 -98 120 -102 -7 -20 -114 -160 -122 -160 -21 0 -430 303 -503 373
-44 42 -43 73 5 134 46 58 283 285 293 281 4 -2 39 -33 77 -70z"/>
<path d="M5137 3208 c-41 -46 -227 -263 -413 -483 -186 -220 -487 -575 -669
-790 -288 -339 -401 -475 -720 -865 -72 -88 -105 -134 -105 -148 0 -13 227
-76 1069 -293 l204 -53 51 55 c56 60 663 849 766 994 35 50 145 196 245 325
366 474 505 660 505 675 0 22 -76 96 -141 137 -30 19 -192 139 -359 265 -168
126 -317 237 -331 247 l-27 17 -75 -83z m101 -287 c51 -27 122 -89 122 -108 0
-9 -16 -35 -35 -59 -53 -65 -135 -186 -135 -200 0 -7 42 -38 93 -69 172 -105
217 -139 217 -160 0 -11 -21 -56 -46 -99 -34 -59 -50 -77 -63 -73 -42 11 -399
236 -447 282 -62 59 -74 94 -49 141 33 62 284 364 301 364 3 0 21 -9 42 -19z"/>
<path d="M6183 2388 c-42 -57 -188 -247 -323 -423 -136 -176 -327 -428 -425
-560 -98 -132 -258 -343 -354 -470 -96 -126 -206 -273 -244 -325 l-68 -94 34
-12 c19 -7 145 -40 279 -74 133 -34 342 -89 463 -122 l220 -60 37 44 c38 43
538 818 700 1083 47 77 135 219 195 315 160 252 187 304 172 327 -39 60 -563
473 -600 473 -4 0 -43 -46 -86 -102z m174 -253 l55 -50 -36 -50 c-57 -80 -88
-134 -82 -144 3 -5 45 -36 94 -69 49 -33 94 -67 100 -74 17 -21 -83 -188 -113
-188 -13 0 -232 141 -308 199 -79 59 -91 103 -50 186 18 35 98 136 172 217
l53 58 30 -18 c16 -9 55 -39 85 -67z"/>
<path d="M1038 2329 c-194 -167 -408 -363 -407 -373 1 -17 519 -488 601 -547
l26 -19 44 36 c23 20 136 125 250 233 l208 196 -98 94 c-118 113 -358 332
-427 387 -53 43 -87 64 -104 64 -6 0 -48 -32 -93 -71z"/>
<path d="M1701 1486 c-152 -153 -149 -136 -48 -213 67 -52 746 -523 763 -530
12 -5 169 70 241 116 73 45 79 38 -222 290 -269 225 -577 471 -590 471 -6 0
-71 -60 -144 -134z"/>
<path d="M6647 1183 c-219 -342 -397 -633 -397 -649 0 -12 231 4 371 26 l136
22 6 202 c11 339 6 546 -14 546 -4 0 -50 -66 -102 -147z"/>
<path d="M3290 652 c0 -21 231 -233 365 -334 91 -69 101 -73 133 -52 62 40
221 166 226 179 3 8 -3 19 -13 25 -16 8 -596 165 -683 184 -16 4 -28 3 -28 -2z"/>
<path d="M4730 254 c-18 -20 -37 -201 -24 -214 18 -18 174 -31 378 -33 l198
-2 34 39 c41 48 43 73 7 87 -55 21 -545 139 -576 139 -3 0 -10 -7 -17 -16z"/>
</g>
</svg>
