<svg xmlns="http://www.w3.org/2000/svg" xmlns:xlink="http://www.w3.org/1999/xlink" width="322.07" height="189.574" viewBox="0 0 322.07 189.574">
  <defs>
    <filter id="Tracé_15" x="0" y="0" width="322.07" height="189.574" filterUnits="userSpaceOnUse">
      <feOffset dy="4" input="SourceAlpha"/>
      <feGaussianBlur stdDeviation="3" result="blur"/>
      <feFlood flood-opacity="0.161"/>
      <feComposite operator="in" in2="blur"/>
      <feComposite in="SourceGraphic"/>
    </filter>
    <clipPath id="clip-path">
      <rect id="Rectangle_3" data-name="Rectangle 3" width="63.907" height="42.545" fill="#f0f0f0"/>
    </clipPath>
  </defs>
  <g id="Groupe_17" data-name="Groupe 17" transform="translate(-14.942 -419.528)">
    <g id="Groupe_10" data-name="Groupe 10" transform="translate(23.942 458.549)">
      <g id="Groupe_9" data-name="Groupe 9">
        <g transform="matrix(1, 0, 0, 1, -9, -39.02)" filter="url(#Tracé_15)">
          <path id="Tracé_15-2" data-name="Tracé 15" d="M14.458,55.561,304.07,0V171.574H0Z" transform="translate(9 5)" fill="#fff"/>
        </g>
        <text id="Site_ultra_performant_" data-name="Site ultra performant

" transform="translate(123.058 26.064)" fill="#616161" font-size="18" font-family="SegoeUI-Semibold, Segoe UI" font-weight="600"><tspan x="0" y="0">Site ultra performant</tspan><tspan x="0" y="24"></tspan><tspan x="0" y="48"></tspan></text>
        <g id="Groupe_de_masques_2" data-name="Groupe de masques 2" transform="translate(39.058 40.297)" clip-path="url(#clip-path)">
          <g id="performance" transform="translate(10.681 0)">
            <g id="Groupe_12" data-name="Groupe 12">
              <g id="Groupe_11" data-name="Groupe 11">
                <path id="Tracé_17" data-name="Tracé 17" d="M42.025,18.465l-2.563-.72a18.356,18.356,0,0,0-.673-2.524l1.855-1.9a.713.713,0,0,0,.14-.789A21.387,21.387,0,0,0,38.59,8.74a.709.709,0,0,0-.754-.272l-2.571.658A18.649,18.649,0,0,0,33.419,7.28l.658-2.571a.713.713,0,0,0-.272-.754,21.376,21.376,0,0,0-3.793-2.194.709.709,0,0,0-.789.14l-1.9,1.855A18.394,18.394,0,0,0,24.8,3.083L24.079.52A.712.712,0,0,0,23.393,0H19.152a.712.712,0,0,0-.686.52l-.72,2.563a18.355,18.355,0,0,0-2.524.673L13.322,1.9a.709.709,0,0,0-.789-.14A21.378,21.378,0,0,0,8.74,3.955a.713.713,0,0,0-.272.754l.658,2.571A18.641,18.641,0,0,0,7.28,9.126L4.709,8.467a.707.707,0,0,0-.754.272,21.376,21.376,0,0,0-2.194,3.793.713.713,0,0,0,.14.789l1.855,1.9a18.407,18.407,0,0,0-.673,2.525l-2.563.72a.712.712,0,0,0-.52.686v4.241a.712.712,0,0,0,.52.686l2.563.72a18.368,18.368,0,0,0,.673,2.525L1.9,29.222a.713.713,0,0,0-.14.789A21.378,21.378,0,0,0,3.955,33.8a.711.711,0,0,0,.754.272l2.571-.658a18.641,18.641,0,0,0,1.846,1.846l-.658,2.571a.713.713,0,0,0,.272.754,21.376,21.376,0,0,0,3.793,2.194.714.714,0,0,0,.789-.14l1.9-1.855a18.406,18.406,0,0,0,2.525.673l.72,2.563a.713.713,0,0,0,.686.52h4.241a.712.712,0,0,0,.686-.52l.72-2.563a18.46,18.46,0,0,0,2.525-.674l1.9,1.855a.713.713,0,0,0,.789.14A21.386,21.386,0,0,0,33.8,38.59a.713.713,0,0,0,.272-.754l-.658-2.571a18.649,18.649,0,0,0,1.846-1.846l2.571.658a.711.711,0,0,0,.754-.272,21.371,21.371,0,0,0,2.194-3.793.713.713,0,0,0-.14-.789l-1.855-1.9a18.407,18.407,0,0,0,.673-2.525l2.563-.72a.712.712,0,0,0,.52-.686V19.152A.712.712,0,0,0,42.025,18.465Zm-.906,4.387-2.473.695a.712.712,0,0,0-.51.569,17.027,17.027,0,0,1-.837,3.137.711.711,0,0,0,.157.747l1.823,1.867a20.026,20.026,0,0,1-1.566,2.708l-2.528-.647a.708.708,0,0,0-.726.237,17.168,17.168,0,0,1-2.3,2.3.714.714,0,0,0-.237.727l.647,2.528a19.939,19.939,0,0,1-2.708,1.565L28,37.457a.709.709,0,0,0-.747-.157,17.064,17.064,0,0,1-3.137.837.713.713,0,0,0-.569.51l-.695,2.472h-3.16L19,38.646a.712.712,0,0,0-.569-.51,17.027,17.027,0,0,1-3.137-.837.708.708,0,0,0-.747.157L12.678,39.28A20.031,20.031,0,0,1,9.97,37.714l.647-2.528a.712.712,0,0,0-.237-.726,17.168,17.168,0,0,1-2.3-2.3.715.715,0,0,0-.727-.237l-2.528.647a20.008,20.008,0,0,1-1.565-2.708L5.088,28a.712.712,0,0,0,.157-.747,17,17,0,0,1-.837-3.137.712.712,0,0,0-.51-.569l-2.473-.695v-3.16L3.9,19a.712.712,0,0,0,.51-.569,17.027,17.027,0,0,1,.837-3.137.711.711,0,0,0-.157-.747L3.265,12.678A20.026,20.026,0,0,1,4.831,9.97l2.528.647a.712.712,0,0,0,.726-.237,17.168,17.168,0,0,1,2.3-2.3.714.714,0,0,0,.237-.727L9.97,4.83a20,20,0,0,1,2.708-1.565l1.867,1.823a.709.709,0,0,0,.747.157,17.05,17.05,0,0,1,3.137-.837A.712.712,0,0,0,19,3.9l.695-2.473h3.161L23.547,3.9a.712.712,0,0,0,.569.51,17.027,17.027,0,0,1,3.137.837A.708.708,0,0,0,28,5.088l1.867-1.823a20.026,20.026,0,0,1,2.708,1.566l-.647,2.528a.712.712,0,0,0,.237.726,17.168,17.168,0,0,1,2.3,2.3.71.71,0,0,0,.727.237l2.528-.647a19.94,19.94,0,0,1,1.565,2.708l-1.823,1.867a.712.712,0,0,0-.157.747,17.05,17.05,0,0,1,.837,3.137.712.712,0,0,0,.51.569l2.473.695Z" transform="translate(0 0)"/>
              </g>
            </g>
            <g id="Groupe_14" data-name="Groupe 14" transform="translate(7.019 7.019)">
              <g id="Groupe_13" data-name="Groupe 13">
                <path id="Tracé_18" data-name="Tracé 18" d="M21.272,7.019A14.253,14.253,0,1,0,35.526,21.272,14.253,14.253,0,0,0,21.272,7.019Zm9.546,22.792-1.484-1.484-1.008,1.008,1.484,1.484a12.757,12.757,0,0,1-7.826,3.246v-2.1H20.56v2.1a12.757,12.757,0,0,1-7.826-3.246l1.484-1.484-1.008-1.008-1.484,1.484A12.757,12.757,0,0,1,8.48,21.985h2.1V20.56H8.48a12.757,12.757,0,0,1,3.246-7.826l1.484,1.484,1.008-1.008-1.484-1.484A12.757,12.757,0,0,1,20.56,8.48v2.1h1.425V8.48a12.757,12.757,0,0,1,7.826,3.246l-1.484,1.484,1.008,1.008,1.484-1.484a12.757,12.757,0,0,1,3.246,7.826h-2.1v1.425h2.1A12.758,12.758,0,0,1,30.819,29.811Z" transform="translate(-7.019 -7.019)"/>
              </g>
            </g>
            <g id="Groupe_16" data-name="Groupe 16" transform="translate(18.422 14.858)">
              <g id="Groupe_15" data-name="Groupe 15">
                <path id="Tracé_19" data-name="Tracé 19" d="M27.369,14.978a.713.713,0,0,0-.79,0l-5.172,3.449c-.045,0-.088,0-.134,0a2.851,2.851,0,1,0,2.851,2.851c0-.045,0-.089,0-.133l3.449-5.173A.713.713,0,0,0,27.369,14.978Zm-4.583,5.589a.753.753,0,0,0-.11.515,1.228,1.228,0,0,1,.022.19,1.425,1.425,0,1,1-1.425-1.425,1.34,1.34,0,0,1,.2.024.719.719,0,0,0,.5-.112L24.4,18.141Z" transform="translate(-18.422 -14.858)"/>
              </g>
            </g>
          </g>
        </g>
        <text id="un_site_optimiser_permet_un_meilleur_referencement" data-name="un site optimiser 
permet un meilleur
referencement" transform="translate(123.058 68.351)" font-size="16" font-family="Arial-BoldMT, Arial" font-weight="700"><tspan x="0" y="0">un site optimiser </tspan><tspan x="0" y="18">permet un meilleur</tspan><tspan x="0" y="36">referencement</tspan></text>
      </g>
    </g>
  </g>
</svg>
