<?xml version="1.0" encoding="utf-8"?>
<!-- Generator: Adobe Illustrator 23.0.2, SVG Export Plug-In . SVG Version: 6.00 Build 0)  -->
<svg version="1.1" id="Calque_1" xmlns="http://www.w3.org/2000/svg" xmlns:xlink="http://www.w3.org/1999/xlink" x="0px" y="0px"
	 viewBox="0 0 884.4 316.6" style="enable-background:new 0 0 884.4 316.6;" xml:space="preserve">
<style type="text/css">
	.st0{fill:#FFFFFF;}
</style>
<title>Fichier 1</title>
<g>
	<g id="Calque_1-2">
		<g id="Calque_1-2-2">
			<polygon class="st0" points="75.8,146 268.5,271.6 239.1,316.6 14.4,170.2 12.5,168.9 0,137.4 16.9,111.5 20.5,110 270.8,11.3 
				290.6,61.3 			"/>
			<polygon class="st0" points="809.3,164.6 614.4,46.1 641.8,0 868.9,138.1 871,139.4 884.4,170.5 868.7,197 865.1,198.5 
				621.7,306.3 600.3,257 			"/>
			<g>
				<g>
					<path class="st0" d="M296.3,132.5v19.5h9c1.6,0.1,3.3-0.3,4.5-1.4c1-0.9,1.6-2.7,1.9-5.4h1.4v16.8h-1.4
						c0.1-1.4-0.2-2.9-0.8-4.2c-0.4-0.9-1.1-1.6-2-2c-1.2-0.5-2.5-0.8-3.8-0.7h-9v15.6c-0.1,1.7,0.1,3.4,0.5,5
						c0.3,0.7,0.9,1.2,1.5,1.6c1,0.6,2.2,0.9,3.4,0.9h1.8v1.4h-21.2V178h1.8c1.7,0.1,3.3-0.5,4.5-1.8c0.6-0.8,0.9-2.7,0.9-5.6v-32
						c0.1-1.7-0.1-3.4-0.5-5c-0.3-0.7-0.8-1.2-1.5-1.6c-1-0.6-2.2-0.9-3.4-0.9h-1.8v-1.4h36.9l0.5,10.9h-1.3
						c-0.4-1.8-1.2-3.6-2.2-5.1c-0.8-1.1-1.9-1.9-3.1-2.4c-1.8-0.6-3.8-0.8-5.7-0.7L296.3,132.5z"/>
					<path class="st0" d="M341.3,144.8c4.8-0.1,9.3,2,12.2,5.8c2.6,3.2,4,7.2,3.9,11.3c0,3.2-0.8,6.3-2.1,9.1
						c-2.5,5.7-8.1,9.4-14.4,9.3c-4.8,0.1-9.3-2.1-12-6c-2.5-3.3-3.8-7.3-3.8-11.4c0-3.2,0.8-6.3,2.3-9.1c1.3-2.8,3.4-5.1,6-6.7
						C335.8,145.6,338.6,144.8,341.3,144.8z M340.2,147.2c-1.4,0-2.7,0.4-3.9,1.1c-1.5,1-2.6,2.4-3.1,4c-0.9,2.4-1.3,4.9-1.2,7.4
						c-0.1,4.4,0.9,8.7,2.9,12.6c1.9,3.5,4.5,5.3,7.7,5.3c2.3,0,4.5-1.1,5.8-2.9c1.5-1.9,2.3-5.3,2.3-10c0-5.9-1.3-10.6-3.8-14
						C345.3,148.5,342.8,147.2,340.2,147.2L340.2,147.2z"/>
					<path class="st0" d="M372.1,144.8v7.5c2.8-5,5.7-7.5,8.6-7.5c1.2,0,2.4,0.4,3.3,1.2c0.8,0.7,1.3,1.7,1.3,2.8
						c0,0.9-0.4,1.8-1,2.4c-0.6,0.6-1.4,1-2.3,1c-1.1-0.1-2.1-0.5-2.9-1.3c-0.6-0.6-1.5-1.1-2.4-1.3c-0.5,0.1-1.1,0.3-1.4,0.7
						c-1.4,1.4-2.6,3.1-3.4,4.9v16c-0.1,1.4,0.2,2.9,0.7,4.2c0.4,0.7,1,1.3,1.7,1.6c1.1,0.5,2.3,0.8,3.5,0.7v1.3h-17.1V178
						c1.3,0.1,2.6-0.2,3.8-0.8c0.6-0.4,1.1-1.1,1.3-1.9c0.2-1.2,0.2-2.4,0.2-3.6v-13c0.1-2.3,0-4.7-0.2-7c-0.1-0.6-0.4-1.2-0.9-1.6
						c-0.5-0.4-1-0.5-1.6-0.5c-0.9,0-1.7,0.2-2.5,0.6l-0.4-1.3l10.1-4.1L372.1,144.8z"/>
					<path class="st0" d="M400.4,148.4v22c0,3.1,0.3,5.1,1,5.9c0.9,1.1,2.2,1.7,3.6,1.6h3v1.3h-20V178h1.5c0.9,0,1.9-0.2,2.7-0.7
						c0.8-0.4,1.4-1.2,1.7-2c0.4-1.6,0.5-3.2,0.5-4.8v-22h-6.5v-2.6h6.5v-2.2c-0.1-2.9,0.5-5.8,1.6-8.5c1.1-2.3,2.8-4.2,4.9-5.6
						c2.2-1.4,4.8-2.2,7.4-2.1c2.6,0,5.1,0.9,7,2.5c1.3,0.8,2,2.2,2.1,3.7c0,0.8-0.4,1.5-1,2.1c-0.5,0.6-1.3,1-2,1
						c-0.6,0-1.3-0.2-1.8-0.6c-0.9-0.7-1.7-1.6-2.3-2.6c-0.6-1-1.5-2-2.5-2.7c-0.8-0.5-1.6-0.7-2.5-0.7c-1,0-2,0.3-2.9,0.9
						c-0.9,0.7-1.4,1.7-1.7,2.8c-0.3,1.3-0.5,4.5-0.5,9.7v2.4h8.7v2.6L400.4,148.4z"/>
					<path class="st0" d="M417.8,158.4c0,5,1.2,8.9,3.6,11.7c2.1,2.6,5.2,4.2,8.6,4.2c2.1,0,4.1-0.6,5.7-1.8
						c1.9-1.6,3.3-3.8,4.1-6.2l1.1,0.7c-0.5,3.4-2.1,6.6-4.5,9.1c-2.3,2.7-5.7,4.2-9.2,4.1c-4,0-7.7-1.7-10.3-4.7
						c-2.9-3.1-4.3-7.3-4.3-12.6c0-5.7,1.5-10.2,4.4-13.4c2.8-3.1,6.8-4.9,11-4.8c3.5-0.1,6.8,1.2,9.2,3.7c2.4,2.5,3.6,5.8,3.6,9.9
						L417.8,158.4z M417.8,156.3h15.5c0-1.5-0.3-3.1-0.8-4.5c-0.6-1.3-1.5-2.4-2.7-3.2c-1.1-0.8-2.4-1.2-3.8-1.2
						c-2.1,0-4,0.9-5.4,2.4C418.9,151.5,417.9,153.9,417.8,156.3z"/>
					<path class="st0" d="M469,175.5c-1.4,1.5-3,2.7-4.8,3.7c-1.6,0.7-3.3,1.1-5,1.1c-3.7,0-7.2-1.7-9.6-4.6
						c-2.8-3.3-4.3-7.5-4.1-11.8c0-4.8,1.6-9.4,4.5-13.2c2.6-3.8,7-6.1,11.6-6c2.7-0.1,5.4,0.9,7.3,2.8v-6.2c0.1-2.4,0-4.7-0.3-7.1
						c-0.1-0.7-0.4-1.3-0.9-1.8c-0.4-0.3-0.9-0.5-1.5-0.5c-0.9,0-1.7,0.2-2.5,0.6l-0.5-1.3l10-4.1h1.6V166c-0.1,2.4,0,4.8,0.3,7.2
						c0.1,0.7,0.4,1.3,0.9,1.8c0.4,0.3,0.9,0.5,1.4,0.5c0.9-0.1,1.8-0.3,2.6-0.6l0.4,1.3l-9.9,4.1H469V175.5z M469,173v-17.2
						c-0.1-1.6-0.6-3.1-1.3-4.5c-0.7-1.3-1.7-2.4-2.9-3.1c-1.1-0.6-2.3-1-3.5-1c-2.2,0-4.4,1.1-5.7,2.9c-2.2,2.5-3.3,6.2-3.3,11.1
						c0,4.9,1.1,8.6,3.2,11.3c2.1,2.6,4.5,3.9,7.2,3.9C464.8,176.3,466.9,175.2,469,173L469,173z"/>
				</g>
				<g>
					<path class="st0" d="M550.5,129.8v1.4c-1.1,0-2.2,0.2-3.1,0.7c-1,0.7-1.8,1.5-2.3,2.6c-0.9,2-1.7,4-2.3,6.1l-13.8,39.9h-1.5
						l-11.3-31.7l-11.2,31.7h-1.3l-14.7-41.1c-1.1-3.1-1.8-4.9-2.1-5.4c-0.4-0.9-1.1-1.6-2-2.1c-1.1-0.5-2.2-0.7-3.4-0.7v-1.4h18.3
						v1.4h-0.9c-1.1-0.1-2.1,0.2-3,0.9c-0.6,0.5-1,1.3-1,2.1c0.3,2,0.8,4,1.6,5.9l9.8,27.8l8.2-23.6L513,140l-1.2-3.3
						c-0.5-1.1-1-2.2-1.7-3.2c-0.3-0.5-0.7-0.9-1.2-1.2c-0.6-0.4-1.2-0.8-1.8-1c-0.7-0.2-1.5-0.2-2.2-0.2v-1.4h19.3v1.4h-1.3
						c-1.1-0.1-2.1,0.2-3,0.9c-0.6,0.6-1,1.5-1,2.4c0.2,2.2,0.8,4.4,1.6,6.5l9.5,26.9l9.4-27.3c0.8-2,1.4-4.1,1.6-6.3
						c0-0.6-0.2-1.1-0.5-1.6c-0.3-0.5-0.8-0.8-1.3-1c-1.2-0.4-2.4-0.6-3.6-0.5v-1.4L550.5,129.8z"/>
				</g>
				<g>
					<path class="st0" d="M553,158.4c0,5,1.2,8.9,3.6,11.7c2.1,2.6,5.2,4.2,8.6,4.2c2.1,0,4.1-0.6,5.7-1.8c1.6-1.2,3-3.3,4.1-6.2
						l1.1,0.7c-0.5,3.4-2.1,6.6-4.5,9.1c-2.3,2.7-5.7,4.2-9.2,4.1c-4,0-7.7-1.7-10.3-4.7c-2.9-3.1-4.3-7.3-4.3-12.6
						c0-5.7,1.5-10.2,4.4-13.4c2.8-3.1,6.8-4.9,11-4.8c3.5-0.1,6.8,1.2,9.2,3.7c2.4,2.5,3.6,5.8,3.6,9.9L553,158.4z M553,156.3h15.5
						c0-1.5-0.3-3.1-0.8-4.5c-0.6-1.3-1.5-2.4-2.7-3.2c-1.1-0.8-2.4-1.2-3.8-1.2c-2.1,0-4,0.9-5.4,2.4
						C554.1,151.5,553.1,153.9,553,156.3z"/>
					<path class="st0" d="M589.8,151.6c3.2-4.5,6.7-6.8,10.5-6.8c3.5,0,6.8,1.6,9,4.4c2.6,2.9,3.8,6.9,3.8,12c0,5.9-2,10.7-5.9,14.4
						c-3,3-7.1,4.6-11.3,4.7c-2,0-4-0.4-5.9-1.1c-2.2-0.8-4.2-1.9-6.2-3.2v-34.6c0.1-2.3,0-4.7-0.3-7c-0.1-0.7-0.4-1.3-0.8-1.8
						c-0.4-0.3-0.9-0.5-1.5-0.5c-0.9,0-1.7,0.2-2.6,0.6l-0.5-1.3l10-4.1h1.6L589.8,151.6z M589.8,153.9v20c1.1,1.1,2.4,2.1,3.9,2.8
						c1.3,0.6,2.7,0.9,4.1,0.9c2.2,0,4.3-1.2,6.2-3.7c1.9-2.4,2.9-6,2.9-10.6c0-4.3-1-7.6-2.9-9.9c-2.3-3.4-6.8-4.4-10.4-2.4
						C592.1,151.8,590.9,152.8,589.8,153.9z"/>
				</g>
			</g>
		</g>
	</g>
</g>
</svg>
