<svg xmlns="http://www.w3.org/2000/svg" viewBox="0 0 238.01 238.04"><defs><style>.cls-1{fill:#0071bc;}.cls-2{fill:#f10003;}</style></defs><title>wordpress</title><g id="Calque_2" data-name="Calque 2"><g id="Calque_1-2" data-name="Calque 1"><path class="cls-1" d="M150,65.14a1,1,0,0,1-.32.18,19.31,19.31,0,0,1-.05,7.61c1.56,1.74.87,5.18-2.15,5.18-4.31,0-8.57,0-12.88,0,10.45,28.74,24.57,58.95,31.63,88.74,3.39-13,7.92-25.67,10.08-39,3.57-21.82-2.29-36.58-8.39-56.93-3.34-11-2.15-20.39,4.4-27.41-20.49-13.61-43.54-20.58-68.7-16.31A91.13,91.13,0,0,0,60.75,46.57c-4.9,4-9.07,8.48-13.93,12.2,7.38,0,14.76.23,22.09.41a3.49,3.49,0,0,1,3.44,3.48A3,3,0,0,1,73.54,65c0,.28,0,.55,0,.83.18,3.12,0,6.32-.09,9.44a3.14,3.14,0,0,1-3.07,3.07c-3.35-.23-6.7-.73-10-1.28,12,27.22,22,55.78,33.09,83.51.64-1.74,1.33-3.48,2-5.23,3.44-14.75,7.61-29.88,13.66-43.17A139,139,0,0,1,97.15,77c-4.22-.32-8.44-.68-12.65-1.23a2.31,2.31,0,0,1-2-2.89,2.94,2.94,0,0,1-.37-1.15c-.27-2.11-.5-4.12-.59-6.23,0-.69,0-1.38,0-2.06A2.8,2.8,0,0,1,84,60.51a1.42,1.42,0,0,1,1-1c11.87-1.92,24-1.28,35.94-1.14,8,.09,21.26-2.29,28.64,1.28,2,.92,2,3.71.69,5.13Zm52.71-28.56c36.67,33.1,44.05,86.91,25.35,131.55-20,47.62-67.38,66.18-116,69.9a2.67,2.67,0,0,1-2.24-.74C56.63,236.15,10.7,196.73,1.67,143.15-6.67,93.78,16.8,44.6,58.6,17.74,107.46-13.65,161.27-.91,202.75,36.58ZM173.51,196.32c29.56-28.65,45.14-62.66,35.15-104.09C197.11,126.92,185.56,161.8,173.51,196.32Zm-25.62,14.89c-5.73-10.49-9.22-22.41-13.48-33.5-4.81-12.52-9.85-25-14.35-37.59-8.7,25-17.23,50.15-27.5,74.35,10,1.56,20.08,2.66,30.25,1.92C131.66,215.8,139.59,213.37,147.89,211.21ZM73,204.29C58.23,164.74,41.87,125.46,28.72,85.4,6.76,130.41,31.56,179.54,73,204.29Z"/><rect class="cls-2" x="3.34" y="101.89" width="234.67" height="29.32"/></g></g></svg>