<svg xmlns="http://www.w3.org/2000/svg" xmlns:xlink="http://www.w3.org/1999/xlink" viewBox="0 0 60.18 69.99"><defs><style>.cls-1{fill:none;}.cls-2{clip-path:url(#clip-path);}.cls-3{fill:#ffa705;fill-rule:evenodd;}</style><clipPath id="clip-path" transform="translate(-21.41)"><rect class="cls-1" width="103" height="70"/></clipPath></defs><title>Fichier 1</title><g id="Calque_2" data-name="Calque 2"><g id="Calque_1-2" data-name="Calque 1"><g class="cls-2"><g id="Groupe_de_masques_4" data-name="Groupe de masques 4"><path id="Tracé_30" data-name="Tracé 30" class="cls-3" d="M52,0c2.11,1.33,4.18,2.7,6.32,4A78,78,0,0,0,68.71,9.16a62.55,62.55,0,0,0,9.43,3.07c.6.14,1.2.27,1.8.43a1.84,1.84,0,0,1,1.56,1.85,60.51,60.51,0,0,1-.19,8.93,52.06,52.06,0,0,1-1.55,8.85C79,34.88,78.16,37.44,77.2,40a51.57,51.57,0,0,1-4.15,8.27,68.37,68.37,0,0,1-5.93,8.3A71,71,0,0,1,58.82,65,45.75,45.75,0,0,1,52,70h-.89a40.83,40.83,0,0,1-7.14-5.33c-2.35-2.2-4.69-4.42-6.86-6.8A61.54,61.54,0,0,1,27.7,44.18a58.88,58.88,0,0,1-4.14-10.65,59.65,59.65,0,0,1-2.08-18.8,2,2,0,0,1,1.7-2.1c2.6-.71,5.22-1.37,7.79-2.19a60.91,60.91,0,0,0,9.34-4A77.76,77.76,0,0,0,48.64,1.6L51.05,0ZM25.16,16l0,.34a55.33,55.33,0,0,0,1.72,15.16A54.1,54.1,0,0,0,32,44.45,62.44,62.44,0,0,0,40.4,56.06,66.19,66.19,0,0,0,51,65.59a.69.69,0,0,0,1,0h0c2.26-1.87,4.61-3.65,6.79-5.61a59.38,59.38,0,0,0,7.29-8.07A58.87,58.87,0,0,0,74,38.22,52.29,52.29,0,0,0,77.73,22c.14-2,.14-3.94.2-5.94l-2.56-.66a74,74,0,0,1-8.7-3,81.87,81.87,0,0,1-9.26-4.55C55.56,6.72,53.77,5.55,52,4.42a.66.66,0,0,0-.85,0c-.75.53-1.5,1-2.28,1.51-2.34,1.35-4.66,2.73-7,4-2.07,1.06-4.2,2-6.36,2.87-1.89.76-3.84,1.41-5.78,2C28.16,15.26,26.66,15.62,25.16,16Z" transform="translate(-21.41)"/><path id="Tracé_31" data-name="Tracé 31" class="cls-3" d="M73.64,18.93a45.74,45.74,0,0,1-.25,8,36.68,36.68,0,0,1-1.67,7.68Q70.55,38,69.08,41.2A39.21,39.21,0,0,1,65,48a54.94,54.94,0,0,1-6.14,7.14,50.77,50.77,0,0,1-6.75,5.58.94.94,0,0,1-1.23,0,55,55,0,0,1-14.46-15A45.46,45.46,0,0,1,31.07,34a44.76,44.76,0,0,1-1.74-14.69c0-.37.18-.45.49-.52a55,55,0,0,0,11.7-4,58,58,0,0,0,9.35-5.42.92.92,0,0,1,1.27,0,62,62,0,0,0,8,4.72,56,56,0,0,0,8.46,3.46C70.26,18,71.92,18.45,73.64,18.93Z" transform="translate(-21.41)"/></g></g></g></g></svg>